<mxfile host="Electron" modified="2023-10-09T02:42:17.102Z" agent="Mozilla/5.0 (Macintosh; Intel Mac OS X 10_15_7) AppleWebKit/537.36 (KHTML, like Gecko) draw.io/22.0.2 Chrome/114.0.5735.289 Electron/25.8.4 Safari/537.36" etag="3nrA50MKSPNaP3I-D8BT" version="22.0.2" type="device">
  <diagram name="Page-1" id="XCA-Zmewr5fPj4Vs8K14">
    <mxGraphModel dx="984" dy="633" grid="1" gridSize="10" guides="1" tooltips="1" connect="1" arrows="1" fold="1" page="1" pageScale="1" pageWidth="850" pageHeight="1100" math="1" shadow="0">
      <root>
        <mxCell id="0" />
        <mxCell id="1" parent="0" />
        <mxCell id="RTy2ujUxJkHMDFuCDI04-2" value="" style="whiteSpace=wrap;html=1;aspect=fixed;fillColor=none;" vertex="1" parent="1">
          <mxGeometry x="360" y="280" width="160" height="160" as="geometry" />
        </mxCell>
        <mxCell id="RTy2ujUxJkHMDFuCDI04-1" value="" style="ellipse;whiteSpace=wrap;html=1;aspect=fixed;fillColor=none;" vertex="1" parent="1">
          <mxGeometry x="360" y="280" width="160" height="160" as="geometry" />
        </mxCell>
        <mxCell id="RTy2ujUxJkHMDFuCDI04-3" value="" style="labelPosition=right;align=left;strokeWidth=1;shape=mxgraph.mockup.markup.curlyBrace;html=1;shadow=0;dashed=0;strokeColor=#999999;direction=north;" vertex="1" parent="1">
          <mxGeometry x="330" y="280" width="20" height="160" as="geometry" />
        </mxCell>
        <mxCell id="RTy2ujUxJkHMDFuCDI04-4" value="w" style="text;html=1;strokeColor=none;fillColor=none;align=center;verticalAlign=middle;whiteSpace=wrap;rounded=0;fontStyle=2" vertex="1" parent="1">
          <mxGeometry x="290" y="345" width="60" height="30" as="geometry" />
        </mxCell>
        <mxCell id="RTy2ujUxJkHMDFuCDI04-5" value="&lt;i&gt;$$A_{sqaure}=w^2$$&lt;/i&gt;" style="text;html=1;strokeColor=none;fillColor=none;align=center;verticalAlign=middle;whiteSpace=wrap;rounded=0;" vertex="1" parent="1">
          <mxGeometry x="395" y="240" width="90" height="30" as="geometry" />
        </mxCell>
        <mxCell id="RTy2ujUxJkHMDFuCDI04-6" value="&lt;i&gt;$$A_{circle}=\frac{\pi}{4}w^2$$&lt;br&gt;&lt;/i&gt;" style="text;html=1;strokeColor=none;fillColor=none;align=center;verticalAlign=middle;whiteSpace=wrap;rounded=0;" vertex="1" parent="1">
          <mxGeometry x="395" y="350" width="90" height="30" as="geometry" />
        </mxCell>
      </root>
    </mxGraphModel>
  </diagram>
</mxfile>
